<svg width="25" height="24" viewBox="0 0 25 24" fill="none" xmlns="http://www.w3.org/2000/svg">
<g clip-path="url(#clip0_381_281)">
<path d="M3.5 21.9664H21.5V6.01244H3.5V21.9664ZM23.5 22.9664L23.4951 23.069C23.4472 23.5393 23.0729 23.9137 22.6025 23.9615L22.5 23.9664H2.5L2.39746 23.9615C1.92707 23.9137 1.55283 23.5393 1.50488 23.069L1.5 22.9664V5.01245C1.5 4.46016 1.94772 4.01245 2.5 4.01245H22.5L22.6025 4.01733C23.1067 4.06867 23.5 4.49477 23.5 5.01245V22.9664Z" fill="black"/>
<path d="M2.1084 3.92908H22.8916V2.03357H2.1084V3.92908ZM24.8916 4.92908L24.8857 5.03064C24.838 5.50148 24.464 5.87559 23.9932 5.92322L23.8916 5.92908H1.1084L1.00586 5.92322C0.501754 5.87186 0.108398 5.44576 0.108398 4.9281V1.03357C0.108398 0.515893 0.50173 0.0897838 1.00586 0.0384521L1.1084 0.0335693H23.8916L23.9932 0.0384521C24.4976 0.0894494 24.8916 0.515645 24.8916 1.03357V4.92908Z" fill="black"/>
<path d="M12.5089 8.38013C13.0612 8.38013 13.5089 8.82784 13.5089 9.38013V16.1741L16.0353 13.6487C16.4257 13.2583 17.0588 13.2584 17.4494 13.6487C17.8399 14.039 17.8405 14.6721 17.4503 15.0627L13.2072 19.3059C12.8167 19.6964 12.1836 19.6963 11.7931 19.3059L7.54994 15.0627C7.15946 14.6723 7.15946 14.0392 7.54994 13.6487C7.94043 13.2583 8.57354 13.2582 8.964 13.6487L11.5089 16.1936V9.38013C11.5089 8.82797 11.9568 8.38033 12.5089 8.38013Z" fill="black"/>
</g>
<defs>
<clipPath id="clip0_381_281">
<rect width="25" height="24" fill="white"/>
</clipPath>
</defs>
</svg>
