<svg width="27" height="21" viewBox="0 0 27 21" fill="none" xmlns="http://www.w3.org/2000/svg">
<path d="M14.0684 0.292889C14.4589 -0.0976271 15.0919 -0.0976324 15.4824 0.292889L20.9969 5.80741C21.3875 6.19795 21.3875 6.83116 20.9969 7.22168L15.4824 12.7353C15.0919 13.1258 14.4589 13.1257 14.0684 12.7353C13.6778 12.3447 13.6778 11.7117 14.0684 11.3212L17.7451 7.6425H2.00098V19.2011L1.99609 19.3027C1.94511 19.807 1.51868 20.2008 1.00098 20.2011C0.483054 20.2011 0.05686 19.8071 0.00585938 19.3027L0 19.2011V6.6425C0 6.09021 0.447715 5.6425 1 5.6425H18.0029L14.0684 1.70695C13.6778 1.31643 13.6778 0.683414 14.0684 0.292889Z" fill="black"/>
<path d="M19.333 0.292889C19.7235 -0.0976271 20.3565 -0.0976324 20.7471 0.292889L26.2616 5.80741C26.6521 6.19795 26.6521 6.83116 26.2615 7.22168L20.7471 12.7353C20.3566 13.1258 19.7235 13.1257 19.333 12.7353C18.9425 12.3447 18.9425 11.7117 19.333 11.3212L24.1387 6.51359L19.333 1.70695C18.9425 1.31643 18.9425 0.683414 19.333 0.292889Z" fill="black"/>
</svg>
