<svg width="3" height="11" viewBox="0 0 3 11" fill="none" xmlns="http://www.w3.org/2000/svg">
<path d="M0.0498047 6.99512V1C0.0498047 0.447715 0.49752 0 1.0498 0C1.60209 0 2.0498 0.447715 2.0498 1V6.99512C2.0498 7.5474 1.60209 7.99512 1.0498 7.99512C0.49752 7.99512 0.0498047 7.5474 0.0498047 6.99512Z" fill="black"/>
<path d="M5.44056e-08 9.69531L5.08575e-08 9.62207C2.27644e-08 9.04217 0.469906 8.57227 1.0498 8.57227C1.6297 8.57227 2.09961 9.04217 2.09961 9.62207L2.09961 9.69531C2.09943 10.2751 1.6296 10.7451 1.0498 10.7451C0.470014 10.7451 0.000175413 10.2751 5.44056e-08 9.69531Z" fill="black"/>
</svg>
