<svg width="48" height="82" viewBox="0 0 48 82" fill="none" xmlns="http://www.w3.org/2000/svg">
<path id="pear" d="M33.1523 2.88687C38.4704 -0.878139 45.753 0.0263658 47.3242 0.277493C47.4991 0.305443 47.6107 0.46268 47.5791 0.636868C47.2941 2.20145 45.7277 9.3715 40.4092 13.1369C35.3511 16.7179 28.5157 16.0747 26.5078 15.7873C26.5214 16.2738 26.5168 16.7491 26.4951 17.213C34.5294 18.4174 40.6904 25.3481 40.6904 33.7179C40.6904 37.1193 41.5544 40.6389 43.5332 43.4054C46.3449 47.3362 48 52.1513 48 57.3527C47.9999 70.6075 37.2548 81.3527 24 81.3527C10.7452 81.3526 8.47976e-05 70.6074 0 57.3527C0 52.1513 1.65517 47.3362 4.4668 43.4054C6.44554 40.6389 7.30956 37.1193 7.30957 33.7179C7.30964 25.3542 13.4616 18.4268 21.4873 17.215C21.5211 16.6877 21.5268 16.1394 21.4971 15.5705C21.3058 11.9148 20.1203 9.24029 19.0137 7.49527C18.4579 6.61898 17.9213 5.97512 17.5381 5.56363C17.3471 5.35856 17.1952 5.21263 17.1006 5.12515C17.0534 5.08148 17.0201 5.05223 17.0039 5.03824C16.9978 5.03297 16.9944 5.02949 16.9932 5.02847C16.9938 5.02898 16.9952 5.02984 16.9971 5.0314C16.9983 5.03244 17.0001 5.0338 17.002 5.03531C17.0028 5.03603 17.0039 5.03741 17.0049 5.03824H17.0059C15.9362 4.16799 15.7726 2.59577 16.6416 1.52456C17.5114 0.452597 19.0862 0.288578 20.1582 1.15835L20.1562 1.16031L20.1572 1.16128C20.1579 1.16051 20.1589 1.16055 20.1592 1.16031L20.1611 1.16128L20.1758 1.173C20.183 1.17894 20.1917 1.18652 20.2012 1.19449C20.2183 1.20886 20.2393 1.22726 20.2637 1.2482C20.2697 1.25356 20.2763 1.25837 20.2822 1.26382C20.3379 1.31213 20.41 1.37555 20.4951 1.45425C20.6743 1.61996 20.9145 1.85385 21.1963 2.1564C21.7596 2.76133 22.4938 3.64677 23.2363 4.81753C24.5538 6.89496 25.8946 9.86865 26.3555 13.7423C27.092 10.9602 28.9513 5.86118 33.1523 2.88687Z" fill="black"/>
</svg>
