<svg width="25" height="24" viewBox="0 0 25 24" fill="none" xmlns="http://www.w3.org/2000/svg">
<g clip-path="url(#clip0_381_286)">
<path d="M3.5 21.9664H21.5V6.01244H3.5V21.9664ZM23.5 22.9664L23.4951 23.069C23.4472 23.5393 23.0729 23.9137 22.6025 23.9615L22.5 23.9664H2.5L2.39746 23.9615C1.92707 23.9137 1.55283 23.5393 1.50488 23.069L1.5 22.9664V5.01245C1.5 4.46016 1.94772 4.01245 2.5 4.01245H22.5L22.6025 4.01733C23.1067 4.06867 23.5 4.49477 23.5 5.01245V22.9664Z" fill="black"/>
<path d="M2.1084 3.92908H22.8916V2.03357H2.1084V3.92908ZM24.8916 4.92908L24.8857 5.03064C24.838 5.50148 24.464 5.87559 23.9932 5.92322L23.8916 5.92908H1.1084L1.00586 5.92322C0.501754 5.87186 0.108398 5.44576 0.108398 4.9281V1.03357C0.108398 0.515893 0.50173 0.0897838 1.00586 0.0384521L1.1084 0.0335693H23.8916L23.9932 0.0384521C24.4976 0.0894494 24.8916 0.515645 24.8916 1.03357V4.92908Z" fill="black"/>
<path d="M12.4908 19.5988C11.9385 19.5988 11.4908 19.151 11.4908 18.5988L11.4908 11.8048L8.96446 14.3302C8.57402 14.7206 7.94093 14.7205 7.5504 14.3302C7.15986 13.9398 7.15921 13.3068 7.54942 12.9161L11.7926 8.67297C12.1831 8.28251 12.8161 8.28259 13.2067 8.67297L17.4498 12.9161C17.8403 13.3066 17.8403 13.9397 17.4498 14.3302C17.0593 14.7206 16.4262 14.7207 16.0358 14.3302L13.4908 11.7853L13.4908 18.5988C13.4908 19.1509 13.0429 19.5985 12.4908 19.5988Z" fill="black"/>
</g>
<defs>
<clipPath id="clip0_381_286">
<rect width="25" height="24" fill="white"/>
</clipPath>
</defs>
</svg>
