<svg width="24" height="24" viewBox="0 0 24 24" fill="none" xmlns="http://www.w3.org/2000/svg">
<path d="M0.140438 3.83831C-0.536795 1.51733 1.35533 -0.692017 3.25274 0.203975L22.077 9.09814C24.095 10.0516 24.095 13.5012 22.077 14.4547L3.25274 23.3488C1.35531 24.2449 -0.536858 22.0355 0.140438 19.7145L2.43634 11.849C2.44997 11.8021 2.44998 11.7507 2.43634 11.7039L0.140438 3.83831ZM2.34942 2.66461C2.322 2.67204 2.2897 2.69091 2.26056 2.72477C2.23131 2.75892 2.21395 2.79794 2.20684 2.83094C2.20107 2.85785 2.19843 2.8958 2.21563 2.9548L4.40216 10.4476H21.2147C21.822 10.4478 22.3143 11.0433 22.3143 11.777C22.3141 12.5105 21.8219 13.1051 21.2147 13.1052H4.40216L2.21563 20.598C2.19842 20.657 2.20107 20.695 2.20684 20.7219C2.21395 20.7549 2.23131 20.7939 2.26056 20.828C2.28971 20.8619 2.32199 20.8808 2.34942 20.8882C2.3719 20.8943 2.40365 20.8969 2.45196 20.8741L21.2762 11.9799C21.33 11.9544 21.3514 11.924 21.3631 11.902C21.3783 11.8734 21.3904 11.8301 21.3904 11.777C21.3904 11.7236 21.3783 11.6795 21.3631 11.6508C21.3514 11.6288 21.33 11.5984 21.2762 11.5729L2.45196 2.67877C2.40366 2.65595 2.3719 2.65854 2.34942 2.66461Z" fill="black"/>
</svg>
