<svg width="25" height="24" viewBox="0 0 25 24" fill="none" xmlns="http://www.w3.org/2000/svg">
<g clip-path="url(#clip0_381_291)">
<path d="M24.4199 21.1632C24.4199 22.3782 23.4348 23.3634 22.2197 23.3634H2.21973C1.0047 23.3634 0.0195312 22.3782 0.0195312 21.1632V14.6222C0.0195312 13.9595 0.556985 13.422 1.21973 13.422C1.88247 13.422 2.41992 13.9595 2.41992 14.6222V20.964H22.0195V14.6222C22.0195 13.9595 22.557 13.422 23.2197 13.422C23.8825 13.422 24.4199 13.9595 24.4199 14.6222V21.1632Z" fill="black"/>
<path d="M20.1958 7.81201C20.6968 8.31303 20.6967 9.12586 20.1958 9.62693C19.6948 10.1278 18.8825 10.1278 18.3815 9.62693L13.5269 4.77171L13.5269 15.3392C13.5267 16.0476 12.9523 16.6222 12.2439 16.6222C11.5354 16.6222 10.961 16.0476 10.9609 15.3392L10.9609 4.72409L6.05803 9.62692C5.55702 10.1278 4.74477 10.1278 4.24374 9.62692C3.74274 9.12587 3.7427 8.31305 4.24374 7.81201L10.8053 1.25046C11.5863 0.469432 12.8526 0.469407 13.6337 1.2504L20.1958 7.81201Z" fill="black"/>
</g>
<defs>
<clipPath id="clip0_381_291">
<rect width="25" height="24" fill="white"/>
</clipPath>
</defs>
</svg>
