<svg width="21" height="28" viewBox="0 0 21 28" fill="none" xmlns="http://www.w3.org/2000/svg">
<g clip-path="url(#clip0_381_303)">
<path d="M3.64404 25.0125H17.644V9.01245H3.64404V25.0125ZM19.644 26.0125L19.6392 26.115C19.5913 26.5854 19.217 26.9597 18.7466 27.0076L18.644 27.0125H2.64404C2.12637 27.0125 1.70026 26.6191 1.64893 26.115L1.64404 26.0125V8.01245C1.64404 7.46017 2.09176 7.01245 2.64404 7.01245H18.644L18.7466 7.01733C19.2507 7.06867 19.644 7.49477 19.644 8.01245V26.0125Z" fill="black"/>
<path d="M2.64404 7.08655H18.644V5.19104H2.64404V7.08655ZM20.644 8.08655L20.6392 8.18811C20.5915 8.65875 20.2171 9.03275 19.7466 9.08069L19.644 9.08655H1.64404L1.5415 9.08069C1.0374 9.02933 0.644043 8.60323 0.644043 8.08557V4.19104C0.644043 3.63876 1.09176 3.19104 1.64404 3.19104H19.644L19.7466 3.19592C20.2507 3.24725 20.644 3.67336 20.644 4.19104V8.08655Z" fill="black"/>
<path d="M8.64404 3.15564H12.644V2.15564H8.64404V3.15564ZM14.644 4.15564C14.644 4.70792 14.1963 5.15564 13.644 5.15564H7.64404C7.12637 5.15564 6.70026 4.76231 6.64893 4.25818L6.64404 4.15564V1.15564C6.64404 0.603355 7.09176 0.15564 7.64404 0.15564H13.644C14.1963 0.15564 14.644 0.603355 14.644 1.15564V4.15564Z" fill="black"/>
<path d="M7.80542 22.0125C7.80542 22.5647 7.3577 23.0125 6.80542 23.0125C6.25313 23.0125 5.80542 22.5647 5.80542 22.0125L5.80542 12.0125C5.80542 11.4602 6.25314 11.0125 6.80542 11.0125C7.3577 11.0125 7.80542 11.4602 7.80542 12.0125L7.80542 22.0125Z" fill="black"/>
<path d="M11.6477 22.0125C11.6477 22.5647 11.2 23.0125 10.6477 23.0125C10.0954 23.0125 9.6477 22.5647 9.6477 22.0125L9.64771 12.0125C9.64771 11.4602 10.0954 11.0125 10.6477 11.0125C11.2 11.0125 11.6477 11.4602 11.6477 12.0125L11.6477 22.0125Z" fill="black"/>
<path d="M15.4897 22.0125C15.4897 22.5647 15.042 23.0125 14.4897 23.0125C13.9375 23.0125 13.4897 22.5647 13.4897 22.0125L13.4897 12.0125C13.4897 11.4602 13.9375 11.0125 14.4897 11.0125C15.042 11.0125 15.4897 11.4602 15.4897 12.0125L15.4897 22.0125Z" fill="black"/>
</g>
<defs>
<clipPath id="clip0_381_303">
<rect width="21" height="28" fill="white"/>
</clipPath>
</defs>
</svg>
