<svg width="23" height="23" viewBox="0 0 23 23" fill="none" xmlns="http://www.w3.org/2000/svg">
<path d="M21.6533 0C22.2056 0 22.6533 0.447715 22.6533 1V16.5674C22.6533 17.1197 22.2056 17.5674 21.6533 17.5674H7.42548L1.60563 21.9968C0.94731 22.4979 0 22.0284 0 21.2011V1C0 0.447715 0.447715 0 1 0H21.6533ZM2 19.1557L6.41878 15.7647H20.6533V1.80278H2V19.1557Z" fill="black"/>
<path d="M10.3267 10.2119V4.2168C10.3267 3.66451 10.7744 3.2168 11.3267 3.2168C11.8789 3.2168 12.3267 3.66451 12.3267 4.2168V10.2119C12.3267 10.7642 11.8789 11.2119 11.3267 11.2119C10.7744 11.2119 10.3267 10.7642 10.3267 10.2119Z" fill="black"/>
<path d="M10.2769 12.9121L10.2769 12.8389C10.2769 12.259 10.7468 11.7891 11.3267 11.7891C11.9066 11.7891 12.3765 12.259 12.3765 12.8389L12.3765 12.9121C12.3763 13.4919 11.9065 13.9619 11.3267 13.9619C10.7469 13.9619 10.277 13.4919 10.2769 12.9121Z" fill="black"/>
</svg>
