<svg width="19" height="20" viewBox="0 0 19 20" fill="none" xmlns="http://www.w3.org/2000/svg">
<g clip-path="url(#clip0_381_299)">
<path d="M10.4476 18.9897C9.97897 19.4583 9.21896 19.4583 8.75033 18.9897L0.468109 10.7066C0.0776209 10.3161 0.0776369 9.68292 0.468146 9.29241L8.75034 1.01022C9.21897 0.541594 9.97897 0.541594 10.4476 1.01022C10.9162 1.47885 10.9162 2.23886 10.4476 2.70749L3.15463 10.0005L10.4476 17.2924C10.9162 17.7611 10.9162 18.5211 10.4476 18.9897Z" fill="black"/>
<path d="M17.8297 18.9897C17.3611 19.4583 16.601 19.4583 16.1324 18.9897L7.85019 10.7066C7.4597 10.3161 7.45972 9.68292 7.85023 9.29241L16.1324 1.01022C16.601 0.541594 17.3611 0.541594 17.8297 1.01022C18.2983 1.47885 18.2983 2.23886 17.8297 2.70749L10.5367 10.0005L17.8297 17.2924C18.2983 17.7611 18.2983 18.5211 17.8297 18.9897Z" fill="black"/>
</g>
<defs>
<clipPath id="clip0_381_299">
<rect width="19" height="20" fill="white"/>
</clipPath>
</defs>
</svg>
