<svg width="25" height="23" viewBox="0 0 25 23" fill="none" xmlns="http://www.w3.org/2000/svg">
<path d="M24.4004 20.4985C24.4004 21.7136 23.4152 22.6987 22.2002 22.6987H2.2002C0.98517 22.6987 0 21.7136 0 20.4985V13.9575C0 13.2948 0.537454 12.7573 1.2002 12.7573C1.86294 12.7573 2.40039 13.2948 2.40039 13.9575V20.2993H22V13.9575C22 13.2948 22.5375 12.7573 23.2002 12.7573C23.8629 12.7573 24.4004 13.2948 24.4004 13.9575V20.4985Z" fill="black"/>
<path d="M4.22413 8.81018C3.72311 8.30916 3.72318 7.49633 4.22413 6.99527C4.72515 6.49441 5.5374 6.49441 6.03841 6.99527L10.893 11.8505L10.893 1.28303C10.8932 0.574595 11.4676 3.2607e-05 12.176 -4.66907e-06C12.8845 -4.59868e-06 13.4589 0.574572 13.4591 1.28303L13.4591 11.8981L18.3619 6.99527C18.8629 6.49439 19.6752 6.49442 20.1762 6.99527C20.6772 7.49633 20.6772 8.30914 20.1762 8.81018L13.6146 15.3717C12.8336 16.1528 11.5673 16.1528 10.7863 15.3718L4.22413 8.81018Z" fill="black"/>
</svg>
