<svg width="44" height="44" viewBox="0 0 44 44" fill="none" xmlns="http://www.w3.org/2000/svg">
<path d="M15 33.4284H29V17.4284H15V33.4284ZM31 34.4284L30.9951 34.5309C30.9472 35.0014 30.573 35.3756 30.1025 35.4235L30 35.4284H14C13.4823 35.4284 13.0562 35.0351 13.0049 34.5309L13 34.4284V16.4284C13 15.8761 13.4477 15.4284 14 15.4284H30L30.1025 15.4333C30.6067 15.4846 31 15.9107 31 16.4284V34.4284Z" fill="black"/>
<path d="M14 15.5025H30V13.607H14V15.5025ZM32 16.5025L31.9951 16.6041C31.9474 17.0747 31.5731 17.4487 31.1025 17.4966L31 17.5025H13L12.8975 17.4966C12.3934 17.4453 12 17.0192 12 16.5015V12.607C12 12.0547 12.4477 11.607 13 11.607H31L31.1025 11.6119C31.6067 11.6632 32 12.0893 32 12.607V16.5025Z" fill="black"/>
<path d="M20 11.5716H24V10.5716H20V11.5716ZM26 12.5716C26 13.1239 25.5523 13.5716 25 13.5716H19C18.4823 13.5716 18.0562 13.1783 18.0049 12.6741L18 12.5716V9.57159C18 9.01931 18.4477 8.57159 19 8.57159H25C25.5523 8.57159 26 9.01931 26 9.57159V12.5716Z" fill="black"/>
<path d="M19.1614 30.4284C19.1614 30.9807 18.7137 31.4284 18.1614 31.4284C17.6091 31.4284 17.1614 30.9807 17.1614 30.4284L17.1614 20.4284C17.1614 19.8761 17.6091 19.4284 18.1614 19.4284C18.7137 19.4284 19.1614 19.8761 19.1614 20.4284L19.1614 30.4284Z" fill="black"/>
<path d="M23.0037 30.4284C23.0037 30.9807 22.5559 31.4284 22.0037 31.4284C21.4514 31.4284 21.0037 30.9807 21.0037 30.4284L21.0037 20.4284C21.0037 19.8761 21.4514 19.4284 22.0037 19.4284C22.5559 19.4284 23.0037 19.8761 23.0037 20.4284L23.0037 30.4284Z" fill="black"/>
<path d="M26.8457 30.4284C26.8457 30.9807 26.398 31.4284 25.8457 31.4284C25.2934 31.4284 24.8457 30.9807 24.8457 30.4284L24.8457 20.4284C24.8457 19.8761 25.2934 19.4284 25.8457 19.4284C26.398 19.4284 26.8457 19.8761 26.8457 20.4284L26.8457 30.4284Z" fill="black"/>
<path d="M41 22C41 11.5066 32.4934 3 22 3C11.5066 3 3 11.5066 3 22C3 32.4934 11.5066 41 22 41V44C9.84974 44 0 34.1503 0 22C0 9.84974 9.84974 0 22 0C34.1503 0 44 9.84974 44 22C44 34.1503 34.1503 44 22 44V41C32.4934 41 41 32.4934 41 22Z" fill="black"/>
</svg>
