<svg id="Layer_1" data-name="Layer 1" xmlns="http://www.w3.org/2000/svg" viewBox="0 0 504 36.23"><defs><style>.cls-1{fill:#fff;}</style></defs><path class="cls-1" d="M130.37,7.9l.09-.09a30.51,30.51,0,0,0,3.32.15c1.39,0,2.64-.09,3.56-.15l.09.09v.86l-.09.09a4.48,4.48,0,0,0-2.29.39c-.32.29-.41.56-.41,7.44v4c0,5.55-2.76,8.25-8.69,8.25-4.63,0-8.16-1.7-8.16-6.92V16.68c0-6.88-.09-7.15-.42-7.44a4.46,4.46,0,0,0-2.28-.39L115,8.76V7.9l.09-.09c1.48.06,2.9.15,4.33.15s2.85-.09,4.33-.15l.09.09v.86l-.09.09a4.48,4.48,0,0,0-2.29.39c-.32.29-.41.56-.41,7.44v4.87c0,2.49,1.22,5.25,5.9,5.25,4.39,0,6.2-2,6.2-5.93V16.68c0-6.88-.08-7.15-.41-7.44a4.46,4.46,0,0,0-2.28-.39l-.09-.09Z"/><path class="cls-1" d="M138.86,16.54a5.2,5.2,0,0,0-.16-1.77c-.1-.22-.32-.33-.89-.37l-.81-.07v-.81c.87,0,1.75.07,2.62.07.61,0,1.23-.05,1.84-.07.74,1,1.46,2,2.25,2.91l6.81,8V16.54a5.29,5.29,0,0,0-.15-1.77c-.11-.22-.33-.33-.9-.37l-.8-.07v-.81c.83,0,1.68.07,2.51.07s1.66-.05,2.49-.07v.81l-.81.07c-.57,0-.79.15-.89.37a5,5,0,0,0-.16,1.77v9.92c0,.76.05,1.55.07,2.2l-.16.09-1.79-.28c-.89-1-1.81-2-2.66-3l-7.08-8.52h0v8.54a5.29,5.29,0,0,0,.15,1.77c.11.22.33.33.89.37l.81.07v.81c-.83,0-1.66-.07-2.49-.07s-1.68,0-2.51.07v-.81l.81-.07c.57,0,.79-.15.89-.37a5.2,5.2,0,0,0,.16-1.77Z"/><path class="cls-1" d="M160.42,25.45a5.29,5.29,0,0,0,.15,1.77c.09.18.33.26.9.31l.81.06v.88c-.9,0-2.1-.07-3.39-.07s-2.51,0-3.41.07v-.88l.81-.06c.57-.05.81-.13.9-.31a5.29,5.29,0,0,0,.15-1.77V16.54a5.29,5.29,0,0,0-.15-1.77c-.09-.18-.33-.26-.9-.31l-.81-.06v-.88c.9,0,2.1.07,3.41.07s2.49-.05,3.39-.07v.88l-.81.06c-.57,0-.81.13-.9.31a5.29,5.29,0,0,0-.15,1.77Z"/><path class="cls-1" d="M173.11,24.84l3.1-7.71a8.42,8.42,0,0,0,.68-2.14c0-.4-.38-.57-.81-.59l-1-.07v-.81c1.07,0,1.9.07,2.54.07s1.44-.05,2.51-.07v.81l-.7.07c-.48,0-.76.39-1,1L173.85,26.3c-.31.72-.55,1.45-.83,2.17h-1.66L166.14,16c-.27-.61-.62-1.51-1.36-1.57l-.89-.07v-.81c1.44,0,2.55.07,3.4.07s2-.05,3.59-.07v.81l-1.09.07c-.33,0-.57.22-.57.41a5,5,0,0,0,.46,1.57Z"/><path class="cls-1" d="M186.65,20.1c.5,0,1,0,1.46,0h1.44c.77,0,1.21,0,1.25-.46l.13-1.24h.87c0,.78-.06,1.55-.06,2.34s0,1.57.06,2.36h-.87L190.8,22c-.07-.61-.48-.81-1.25-.81h-1.44c-.48,0-1,0-1.46.07v5.83c.92.05,1.86.07,2.8.07a7.52,7.52,0,0,0,2.66-.37l.5-2.06h.86l-.25,3.46-.1.17c-.88.07-2.17.09-3.35.09-.76,0-1.48,0-2,0-.89,0-1.79-.07-2.69-.07s-1.81,0-2.62.07V28l.7-.39c.35-.2.44-.57.44-1.24V16.54a5.29,5.29,0,0,0-.15-1.77c-.11-.22-.33-.33-.9-.37l-.81-.07v-.81c.72,0,1.36,0,1.92.05l1.49,0c2,0,3.54-.05,4.78-.07l1.16,0a19.08,19.08,0,0,1,2,.09l.13.15-.3,3.1h-.79L192,15.21c-.05-.33-1.51-.42-2.51-.42s-1.88,0-2.8.07Z"/><path class="cls-1" d="M197,16.54a5.29,5.29,0,0,0-.15-1.77c-.11-.22-.33-.33-.9-.37l-.81-.07v-.81c1.45,0,2.56.07,3.67.07,1.49,0,3-.05,4.44-.07h.2c2.14,0,4.08.72,4.08,3.24,0,1.92-1.44,3.21-3.25,3.86l4,6a3.35,3.35,0,0,0,.63.68,2.24,2.24,0,0,0,.9.3v.88c-.7,0-1.42-.07-2.12-.07s-1.31,0-2,.07l-4.9-7.58.15-.4.38,0a3,3,0,0,0,3.12-3.14,2.66,2.66,0,0,0-2.95-2.75,3.66,3.66,0,0,0-1.4.19V25.45a5,5,0,0,0,.16,1.77c.08.18.32.26.89.31l.81.06v.88c-.9,0-2.1-.07-3.39-.07s-2.51,0-3.41.07v-.88l.81-.06c.57-.05.81-.13.9-.31a5.29,5.29,0,0,0,.15-1.77Z"/><path class="cls-1" d="M212.75,24l.15,1.92a4.46,4.46,0,0,0,3.43,1.68c1.86,0,3.43-1,3.43-2.88,0-.94-.57-1.66-1.81-2l-3.06-.92c-1.83-.55-3.19-1.84-3.19-3.71,0-3.5,2.6-4.83,5.77-4.83a11.27,11.27,0,0,1,4.06.74l.11.26a12.35,12.35,0,0,0-.3,3.1h-.9l-.13-1.79a4.16,4.16,0,0,0-2.91-1.2c-2,0-3,1.18-3,2.64,0,1,.7,1.71,2.32,2.12l2.49.66c2,.52,3.3,1.79,3.3,3.76,0,3.71-3.08,5.26-6.41,5.26a10.64,10.64,0,0,1-4.56-1,18.89,18.89,0,0,0,.33-3.78Z"/><path class="cls-1" d="M229,25.45a5.29,5.29,0,0,0,.15,1.77c.09.18.33.26.89.31l.81.06v.88c-.89,0-2.09-.07-3.38-.07s-2.52,0-3.41.07v-.88l.81-.06c.56-.05.8-.13.89-.31a5.29,5.29,0,0,0,.15-1.77V16.54a5.29,5.29,0,0,0-.15-1.77c-.09-.18-.33-.26-.89-.31l-.81-.06v-.88c.89,0,2.1.07,3.41.07s2.49-.05,3.38-.07v.88l-.81.06c-.56,0-.8.13-.89.31a5.29,5.29,0,0,0-.15,1.77Z"/><path class="cls-1" d="M240.88,25.45a5.29,5.29,0,0,0,.15,1.77c.09.18.33.26.89.31l.81.06v.88c-.89,0-2.1-.07-3.38-.07s-2.52,0-3.41.07v-.88l.81-.06c.56-.05.8-.13.89-.31a5.2,5.2,0,0,0,.16-1.77V14.88h-2.56c-.59,0-1.2,0-1.36.19a1.05,1.05,0,0,0-.19.53l-.11,1.51h-.88a23.9,23.9,0,0,0-.28-3.48l.13-.11c2.3,0,4.57.07,6.77.07s4.5-.05,6.8-.07l.13.11a23.9,23.9,0,0,0-.28,3.48h-.88L245,15.6a1.05,1.05,0,0,0-.19-.53c-.16-.19-.77-.19-1.36-.19h-2.55Z"/><path class="cls-1" d="M260,13.59h1.68V14l-3.84,5.71a13.79,13.79,0,0,0-1.16,2.18v3.56a5.29,5.29,0,0,0,.15,1.77c.09.18.33.26.9.31l.81.06v.88c-.9,0-2.1-.07-3.39-.07s-2.51,0-3.41.07v-.88l.81-.06c.57-.05.81-.13.9-.31a5.29,5.29,0,0,0,.15-1.77v-3a13.56,13.56,0,0,0-1-1.86L250.43,17a12.46,12.46,0,0,0-1.13-1.47,2.07,2.07,0,0,0-1.71-.72V14l3.48-.78a6.74,6.74,0,0,1,2.49,3l2.33,4.43Z"/><path class="cls-1" d="M284.49,20.81c0,5.16-3.29,7.91-8.3,7.91s-7.86-2.66-7.86-7.65c0-5.15,3.3-7.9,8.3-7.9S284.49,15.83,284.49,20.81ZM271.6,20.7c0,3.61,1.51,6.8,4.59,6.8,4.07,0,5-3,5-6.29,0-3.61-1.51-6.82-4.59-6.82C272.57,14.39,271.6,17.43,271.6,20.7Z"/><path class="cls-1" d="M290.72,20.11a14.44,14.44,0,0,0,1.46.05h1.11c.77,0,1.2-.05,1.25-.46l.13-1.16h.87c0,.7-.06,1.46-.06,2.25s0,1.57.06,2.36h-.87l-.13-1.09c-.07-.61-.48-.81-1.25-.81h-1.11a14.55,14.55,0,0,0-1.46.07V25.4a5.29,5.29,0,0,0,.15,1.77c.08.17.33.26.89.31l1,.06v.88c-1.11,0-2.32-.07-3.61-.07s-2.51,0-3.4.07v-.88l.8-.06c.57-.05.81-.14.9-.31a5.29,5.29,0,0,0,.15-1.77V16.49a5.29,5.29,0,0,0-.15-1.77c-.11-.22-.33-.33-.9-.37l-.8-.07v-.81c.72,0,1.35,0,1.92,0l1.48,0c1.71,0,3.2,0,4.44-.07l1.16,0a19.2,19.2,0,0,1,2,.09l.13.15-.3,3.1h-.79l-.18-1.64c0-.32-1.5-.41-2.51-.41-.59,0-1.53,0-2.44.06Z"/><path class="cls-1" d="M305.16,7.8l.09-.09c1.48.06,2.9.15,4.33.15s2.85-.09,4.33-.15l.09.09v.86l-.09.09a4.41,4.41,0,0,0-2.28.39c-.33.29-.42.56-.42,7.44v3c0,6.88.09,7.15.42,7.45a4.55,4.55,0,0,0,2.28.38l.09.09v.86l-.09.09c-1.48-.06-2.91-.15-4.33-.15s-2.85.09-4.33.15l-.09-.09V27.5l.09-.09a4.61,4.61,0,0,0,2.28-.38c.33-.3.42-.57.42-7.45v-3c0-6.88-.09-7.15-.42-7.44a4.46,4.46,0,0,0-2.28-.39l-.09-.09Z"/><path class="cls-1" d="M320.59,27c.91,0,1.85.06,2.79.06a7.6,7.6,0,0,0,2.67-.37l.5-2.23h.85l-.24,3.63-.11.17c-.87.07-2.16.09-3.34.09-.76,0-1.49,0-2,0-.9,0-1.79-.07-2.69-.07s-1.81.05-2.62.07v-.5l.7-.4c.35-.19.44-.57.44-1.24V16.44a5.2,5.2,0,0,0-.16-1.77c-.08-.17-.33-.26-.89-.31l-.81-.06v-.88c.89,0,2.1.07,3.41.07s2.49,0,3.38-.07v.88l-.8.06c-.57.05-.81.14-.9.31a5.29,5.29,0,0,0-.15,1.77Z"/><path class="cls-1" d="M333.67,27c.91,0,1.85.06,2.79.06a7.6,7.6,0,0,0,2.67-.37l.5-2.23h.85l-.24,3.63-.11.17c-.87.07-2.16.09-3.34.09-.76,0-1.48,0-2,0-.9,0-1.79-.07-2.69-.07s-1.81.05-2.62.07v-.5l.7-.4c.35-.19.44-.57.44-1.24V16.44a5.2,5.2,0,0,0-.16-1.77c-.08-.17-.32-.26-.89-.31l-.81-.06v-.88c.89,0,2.1.07,3.41.07s2.49,0,3.38-.07v.88l-.8.06c-.57.05-.81.14-.9.31a5.29,5.29,0,0,0-.15,1.77Z"/><path class="cls-1" d="M347.11,25.35a5.29,5.29,0,0,0,.15,1.77c.09.18.33.26.9.31l.81.06v.88c-.9,0-2.1-.07-3.39-.07s-2.51.05-3.41.07v-.88l.81-.06c.57-.05.81-.13.9-.31a5.29,5.29,0,0,0,.15-1.77V16.44a5.29,5.29,0,0,0-.15-1.77c-.09-.17-.33-.26-.9-.31l-.81-.06v-.88c.9,0,2.1.07,3.41.07s2.49,0,3.39-.07v.88l-.81.06c-.57.05-.81.14-.9.31a5.29,5.29,0,0,0-.15,1.77Z"/><path class="cls-1" d="M352.6,16.41a5.29,5.29,0,0,0-.15-1.77c-.11-.22-.33-.33-.89-.37l-.81-.07v-.81c.87,0,1.74.07,2.62.07.61,0,1.22-.05,1.83-.07.75,1,1.47,2,2.25,2.91l6.82,8V16.41a5.29,5.29,0,0,0-.15-1.77c-.11-.22-.33-.33-.9-.37l-.81-.07v-.81c.83,0,1.69.07,2.52.07s1.66-.05,2.49-.07v.81l-.81.07c-.57,0-.79.15-.9.37a5.29,5.29,0,0,0-.15,1.77v9.91c0,.77,0,1.56.07,2.21l-.16.09-1.79-.29c-.89-1-1.81-2-2.66-3l-7.08-8.52h-.05v8.54a5,5,0,0,0,.16,1.77c.11.22.32.33.89.37l.81.07v.8c-.83,0-1.66-.06-2.49-.06s-1.68,0-2.51.06v-.8l.81-.07c.56,0,.78-.15.89-.37a5.29,5.29,0,0,0,.15-1.77Z"/><path class="cls-1" d="M384.87,20.76c0,5.16-3.29,7.91-8.3,7.91S368.71,26,368.71,21c0-5.16,3.3-7.91,8.3-7.91S384.87,15.78,384.87,20.76ZM372,20.66c0,3.6,1.51,6.79,4.59,6.79,4.07,0,5-3,5-6.29,0-3.61-1.51-6.82-4.59-6.82C372.94,14.34,372,17.38,372,20.66Z"/><path class="cls-1" d="M391.21,25.35a5.2,5.2,0,0,0,.16,1.77c.08.18.32.26.89.31l.81.06v.88c-.9,0-2.1-.07-3.39-.07s-2.51.05-3.4.07v-.88l.8-.06c.57-.05.81-.13.9-.31a5.29,5.29,0,0,0,.15-1.77V16.44a5.29,5.29,0,0,0-.15-1.77c-.09-.17-.33-.26-.9-.31l-.8-.06v-.88c.89,0,2.09.07,3.4.07s2.49,0,3.39-.07v.88l-.81.06c-.57.05-.81.14-.89.31a5.2,5.2,0,0,0-.16,1.77Z"/><path class="cls-1" d="M396.28,23.89l.16,1.92a4.45,4.45,0,0,0,3.43,1.68c1.86,0,3.43-1,3.43-2.88,0-.94-.57-1.66-1.82-2l-3.05-.92c-1.84-.55-3.19-1.83-3.19-3.71,0-3.5,2.6-4.83,5.76-4.83a11.32,11.32,0,0,1,4.07.74l.11.26a12.33,12.33,0,0,0-.31,3.11H404l-.14-1.8a4.11,4.11,0,0,0-2.9-1.2c-2,0-3,1.18-3,2.65,0,1,.7,1.7,2.31,2.12l2.49.65c2,.53,3.3,1.79,3.3,3.76,0,3.71-3.08,5.26-6.4,5.26a10.54,10.54,0,0,1-4.57-1,18.18,18.18,0,0,0,.33-3.78Z"/><path class="cls-1" d="M414.18,23.05l.09.09a10.94,10.94,0,0,0,.09,2c.06.44,1.45,2.14,4.77,2.14s5.34-1.73,5.34-4.54c0-6-11.66-.72-11.66-8.82,0-4.06,2.94-6.61,7.93-6.61a13.4,13.4,0,0,1,5.6,1.21l.09.21a20.8,20.8,0,0,0-.5,4l-.09.09-.95-.09-.09-.09c0-1.78,0-2.11-.18-2.32a5.84,5.84,0,0,0-4.18-1.48c-3.2,0-4.66,1.81-4.66,3.92,0,2.67,1.43,3.14,6.29,3.88,3.44.51,5.37,1.75,5.37,4.84s-2.52,7.33-9,7.33a12.68,12.68,0,0,1-5.52-1.25l-.09-.18a29,29,0,0,0,.33-4.24l.09-.09Z"/><path class="cls-1" d="M439.88,13.46h1.68v.42l-3.85,5.7a14.19,14.19,0,0,0-1.15,2.18v3.56a5.29,5.29,0,0,0,.15,1.77c.09.18.33.27.9.31l.8.07v.87c-.89,0-2.09-.07-3.38-.07s-2.52.05-3.41.07v-.87l.81-.07c.56,0,.81-.13.89-.31a5.2,5.2,0,0,0,.16-1.77v-3a13.36,13.36,0,0,0-1-1.86l-2.2-3.56a12.67,12.67,0,0,0-1.14-1.46,2,2,0,0,0-1.7-.73v-.8l3.47-.79a6.73,6.73,0,0,1,2.49,3l2.34,4.44Z"/><path class="cls-1" d="M443.7,23.86l.16,1.92a4.46,4.46,0,0,0,3.43,1.69c1.85,0,3.43-1,3.43-2.89,0-.94-.57-1.66-1.82-2l-3.06-.92c-1.83-.54-3.19-1.83-3.19-3.71,0-3.5,2.6-4.83,5.77-4.83a11.32,11.32,0,0,1,4.07.74l.1.26a12.87,12.87,0,0,0-.3,3.11h-.9l-.13-1.79a4.1,4.1,0,0,0-2.9-1.21c-2,0-3,1.18-3,2.65,0,1,.7,1.7,2.32,2.12l2.49.65c2,.53,3.3,1.79,3.3,3.76,0,3.71-3.08,5.27-6.4,5.27a10.52,10.52,0,0,1-4.57-1,18.83,18.83,0,0,0,.33-3.78Z"/><path class="cls-1" d="M463.21,25.32a5.29,5.29,0,0,0,.15,1.77c.09.17.33.26.9.3l.8.07v.87c-.89,0-2.09-.06-3.38-.06s-2.51,0-3.41.06v-.87l.81-.07c.57,0,.81-.13.89-.3a5.2,5.2,0,0,0,.16-1.77V14.74h-2.56c-.59,0-1.2,0-1.35.2a.93.93,0,0,0-.2.52L455.91,17H455a25.08,25.08,0,0,0-.29-3.47l.13-.11c2.3,0,4.57.06,6.78.06s4.5,0,6.79-.06l.13.11A25.23,25.23,0,0,0,468.3,17h-.88l-.11-1.51a.93.93,0,0,0-.19-.52c-.16-.2-.77-.2-1.36-.2h-2.55Z"/><path class="cls-1" d="M475.12,20a14.54,14.54,0,0,0,1.47.05H478c.76,0,1.2-.05,1.24-.46l.13-1.25h.88c0,.79-.07,1.55-.07,2.34s.05,1.57.07,2.36h-.88l-.13-1.09c-.06-.62-.48-.81-1.24-.81h-1.44c-.49,0-1,0-1.47.06V27c.92,0,1.86.06,2.8.06a7.29,7.29,0,0,0,2.66-.37l.51-2.05h.85l-.24,3.45-.11.17c-.88.07-2.16.09-3.35.09-.76,0-1.48,0-2,0-.89,0-1.79-.07-2.68-.07s-1.82.05-2.62.07v-.5l.69-.4c.35-.19.44-.56.44-1.24V16.41a5.29,5.29,0,0,0-.15-1.77c-.11-.22-.33-.33-.9-.37l-.81-.07v-.8c.73,0,1.36,0,1.93,0l1.48,0c2.05,0,3.54,0,4.79-.06.41,0,.78,0,1.15,0,.73,0,1.36,0,2,.09l.13.15-.31,3.11h-.78l-.18-1.64c0-.33-1.51-.42-2.51-.42s-1.88,0-2.8.07Z"/><path class="cls-1" d="M502.14,25.32a5,5,0,0,0,.16,1.77c.08.18.32.27.89.31l.81.07v.87c-.89,0-2.1-.07-3.39-.07s-2.51.05-3.4.07v-.87l.8-.07c.57,0,.81-.13.9-.31a5.29,5.29,0,0,0,.15-1.77v-9h0l-4.46,9.29c-.46.94-1,2-1.31,2.88h-.74c-.22-.61-.5-1.2-.79-1.81l-5-10.38h0v9a5.29,5.29,0,0,0,.15,1.77c.11.22.33.33.9.38l.8.06v.81c-.83,0-1.66-.07-2.49-.07s-1.68.05-2.51.07v-.81l.81-.06c.57,0,.79-.16.89-.38a5,5,0,0,0,.16-1.77V16.41a5,5,0,0,0-.16-1.77c-.1-.22-.32-.33-.89-.37l-.81-.07v-.8c.87,0,1.75.06,2.62.06s1.75,0,2.62-.06c.4.89,1.18,2.53,1.64,3.51l3.46,7.21,4-8.26c.4-.8.74-1.7,1.07-2.46,1.07,0,1.88.06,2.52.06s1.44,0,2.53-.06v.8l-.81.07c-.57,0-.78.15-.89.37a5,5,0,0,0-.16,1.77Z"/><rect class="cls-1" x="100.43" width="0.87" height="36.23"/><polygon class="cls-1" points="0 14.2 3.29 14.2 3.29 24.07 0 24.07 0 29.84 14.82 29.84 14.82 24.07 11.52 24.07 11.52 14.2 14.82 14.2 14.82 8.44 0 8.44 0 14.2"/><path class="cls-1" d="M40.9,7.94a11.2,11.2,0,1,0,11.19,11.2A11.2,11.2,0,0,0,40.9,7.94Zm-2.18,12.2a3.62,3.62,0,0,1-.39,2,3.46,3.46,0,0,1-2.9,1.12c-1.13,0-2.42-.32-2.9-1.12a3.6,3.6,0,0,1-.4-2V15.82h2.19v4.36a1.54,1.54,0,0,0,.25,1,1.35,1.35,0,0,0,1.72,0,1.55,1.55,0,0,0,.24-1V15.82h2.19Zm3.53,3H40.06v-7.3h2.19Zm7.87-5.47-1.9.91c-.19-.71-.58-1.12-1.27-1.12-.94,0-1.41.77-1.41,2s.47,2,1.41,2a1.21,1.21,0,0,0,1.22-.91l2,.71a3.27,3.27,0,0,1-3.22,2,3.45,3.45,0,0,1-3.63-3.78A3.49,3.49,0,0,1,47,15.7,3.21,3.21,0,0,1,50.12,17.65Z"/><path class="cls-1" d="M68.7,24.06c0,.68,0,1.36,0,2a7.92,7.92,0,0,0,0,.85,2.17,2.17,0,0,0,.43,1,.25.25,0,0,1,0,.07,2,2,0,0,0,1,.61,3.6,3.6,0,0,0,1.9,0,1.84,1.84,0,0,0,.89-.49,1.94,1.94,0,0,0,.52-1c0-.2,0-.41.07-.61s0-.2,0-.3c0-.89,0-1.78,0-2.67a6.15,6.15,0,0,1,.06-.74.52.52,0,0,1,.11-.25s0,0,0-.05a.81.81,0,0,1,.29-.16l.35-.08.09,0c0-.06,0-.11,0-.16H72.34v.16h0l.38.09a.55.55,0,0,1,.46.52,3.51,3.51,0,0,1,0,.55c0,.9,0,1.79,0,2.69a5,5,0,0,1,0,.77,1.48,1.48,0,0,1-.72,1.15,1.57,1.57,0,0,1-.32.15,2.54,2.54,0,0,1-1.34,0l-.12-.05a1.24,1.24,0,0,1-.81-.75,1.43,1.43,0,0,1-.08-.22,1.6,1.6,0,0,1,0-.23,3.07,3.07,0,0,1-.07-.53c0-.76,0-1.52,0-2.29v-1a.38.38,0,0,1,0-.1,1.64,1.64,0,0,1,0-.22.45.45,0,0,1,.12-.29s0,0,.05,0a.54.54,0,0,1,.24-.12l.12,0,.33-.06v-.15H67.82c0,.06,0,.11,0,.16h0l.21,0a1.61,1.61,0,0,1,.31.07c.26.1.34.29.34.66a.56.56,0,0,1,0,.13C68.69,23.49,68.7,23.77,68.7,24.06Z"/><path class="cls-1" d="M67.23,21.65H83.15c.14,0,.21,0,.24-.1a.37.37,0,0,0,0-.17v-.93c0-.29,0-.32-.33-.32H67.18c-.18,0-.25,0-.28.14a.66.66,0,0,0,0,.15v.89C66.89,21.62,66.92,21.65,67.23,21.65Z"/><path class="cls-1" d="M78.18,28.62a.25.25,0,0,1,.12-.17.33.33,0,0,1,.22,0c.13,0,.26.08.39.12a2.75,2.75,0,0,0,.47.13,2.59,2.59,0,0,0,1.11,0,1.83,1.83,0,0,0,1.35-1.1,1.73,1.73,0,0,0,0-1.06h0a1.7,1.7,0,0,0-.73-1L80.29,25l-.56-.37-.25-.19a4.23,4.23,0,0,1-.42-.32,1,1,0,0,1-.28-.48.83.83,0,0,1,0-.47.66.66,0,0,1,0-.15l0,0a1,1,0,0,1,1-.46,1.77,1.77,0,0,1,1.45,1c.1.2.16.41.24.61h.21c0-.22,0-.44-.07-.67,0-.44-.09-.89-.14-1.34h-.07c-.07,0-.1,0-.13,0l0,.08a.27.27,0,0,1-.38.17,5.58,5.58,0,0,1-.58-.18,2,2,0,0,0-.48-.09l-.06,0a2.09,2.09,0,0,0-.56,0,1.54,1.54,0,0,0-1,.62A1.64,1.64,0,0,0,77.9,24a1.52,1.52,0,0,0,.64,1.11.1.1,0,0,0,0,0c.38.27.78.51,1.17.77a9,9,0,0,1,.86.62,1,1,0,0,1,.16.19.78.78,0,0,1,.11.2,1,1,0,0,1,.08.58,1.85,1.85,0,0,1,0,.23.93.93,0,0,1-.1.2.9.9,0,0,1-.5.44l-.28.07a1.54,1.54,0,0,1-.37,0,1.66,1.66,0,0,1-1-.43,2.61,2.61,0,0,1-.75-1.11h0a.23.23,0,0,0-.11-.14.26.26,0,0,0-.17,0h0c.1.68.19,1.34.29,2C78.06,28.78,78.13,28.76,78.18,28.62Z"/><path class="cls-1" d="M83.07,29.25H67.13c-.17,0-.24.07-.24.25v1c0,.26,0,.3.29.3H83.12c.26,0,.3,0,.3-.31v-.86C83.42,29.29,83.39,29.25,83.07,29.25Z"/><path class="cls-1" d="M74.78,28.75h2.88V28.6l-.2,0-.34-.06a.58.58,0,0,1-.38-.41,3.15,3.15,0,0,1,0-.44V23.29a3.11,3.11,0,0,1,0-.43.48.48,0,0,1,.45-.47,3,3,0,0,1,.32-.06l.16,0h0a.86.86,0,0,1,0-.15H74.77v.14l.56.11a.4.4,0,0,1,.34.35s0,.09,0,.13,0,.21,0,.31c0,1.47,0,2.94,0,4.4a2.83,2.83,0,0,1,0,.29V28a1.08,1.08,0,0,1,0,.21c-.06.18-.18.26-.44.3l-.44.07h0A.66.66,0,0,0,74.78,28.75Z"/><path class="cls-1" d="M68,19.63H82.32c.18,0,.24-.06.24-.24v-.83c0-.18-.06-.24-.24-.24H82c-.13-.68-.23-1.34-.38-2a11.36,11.36,0,0,0-1.5-3.76,5.73,5.73,0,0,0-3-2.45c-.12,0-.28,0-.34-.13s0-.24,0-.37-.05-.24-.21-.23-.14-.05-.14-.15V7.68s0-.09,0-.13c.31,0,.34-.06.35-.24,0-.34,0-.37-.33-.43l0-.17a1.75,1.75,0,0,0-.36-.85,1,1,0,0,0-.88-.4,1,1,0,0,0-.85.64,7.32,7.32,0,0,0-.26.79c-.27,0-.3.05-.31.25s0,.35.35.42v1.8c-.34.09-.34.09-.34.45v.06c0,.11,0,.15-.13.18a9.63,9.63,0,0,0-1.19.5A6,6,0,0,0,70,12.94a13.92,13.92,0,0,0-1.56,5c-.06.39,0,.39-.45.4-.19,0-.24.05-.24.25s0,.54,0,.82S67.8,19.63,68,19.63Zm8.55-9,.58.5A8.18,8.18,0,0,1,79.36,15a13.24,13.24,0,0,1,.52,3.06.19.19,0,0,1,0,.15.17.17,0,0,1-.13.07s-.12-.11-.12-.17c-.06-.37-.07-.74-.13-1.11a13.72,13.72,0,0,0-1.33-4.29,7.77,7.77,0,0,0-1.54-2,.53.53,0,0,0-.1-.06ZM77,15.91c.06.71.11,1.42.16,2.14h0c0,.1,0,.22-.13.22s-.14-.1-.14-.2c0-.26,0-.51,0-.77a26.57,26.57,0,0,0-.5-4c-.19-.83-.42-1.64-.64-2.46l-.06-.2,0,0c.17.46.35.92.51,1.39A17.09,17.09,0,0,1,77,15.91ZM75.35,9.1v-1a1.1,1.1,0,0,1,0-.18.28.28,0,0,1,.3-.26A.3.3,0,0,1,76,8c0,.46,0,.91,0,1.38h-.61Zm-1,0c0-.34,0-.69,0-1a.31.31,0,0,1,.3-.33A.3.3,0,0,1,75,8V9.36h-.6ZM74,12.39c.18-.55.41-1.08.61-1.62l.07-.15h0c-.08.27-.17.53-.25.8a22,22,0,0,0-.83,4.34c-.07.76-.12,1.53-.18,2.3a.49.49,0,0,1-.06.17.11.11,0,0,1-.2,0,.59.59,0,0,1,0-.14A20.28,20.28,0,0,1,74,12.39Zm-3.46,4.8a13.84,13.84,0,0,1,.92-3.52,7.44,7.44,0,0,1,2.22-2.95l.14-.1.06,0A8.09,8.09,0,0,0,72.09,13a12,12,0,0,0-.9,2.58,13.51,13.51,0,0,0-.41,2.52.15.15,0,0,1,0,.1c0,.05-.11.12-.14.11a.2.2,0,0,1-.12-.15C70.51,17.81,70.52,17.5,70.56,17.19Z"/></svg>